<?xml version="1.0" encoding="UTF-8" standalone="no"?>
<svg
   version="1.1"
   width="45"
   height="45"
   id="svg4"
   sodipodi:docname="robo_chess_logo3_round.svg"
   xml:space="preserve"
   inkscape:version="1.3 (0e150ed6c4, 2023-07-21)"
   inkscape:export-filename="robo_chess_logo3_round_xxxhpdi.png"
   inkscape:export-xdpi="409.60001"
   inkscape:export-ydpi="409.60001"
   xmlns:inkscape="http://www.inkscape.org/namespaces/inkscape"
   xmlns:sodipodi="http://sodipodi.sourceforge.net/DTD/sodipodi-0.dtd"
   xmlns="http://www.w3.org/2000/svg"
   xmlns:svg="http://www.w3.org/2000/svg"><defs
     id="defs4" /><sodipodi:namedview
     id="namedview4"
     pagecolor="#ffffff"
     bordercolor="#000000"
     borderopacity="0.25"
     inkscape:showpageshadow="2"
     inkscape:pageopacity="0.0"
     inkscape:pagecheckerboard="0"
     inkscape:deskcolor="#d1d1d1"
     inkscape:zoom="11.044444"
     inkscape:cx="22.500001"
     inkscape:cy="22.047285"
     inkscape:window-width="1904"
     inkscape:window-height="899"
     inkscape:window-x="8"
     inkscape:window-y="64"
     inkscape:window-maximized="0"
     inkscape:current-layer="svg4"
     showgrid="false" /><ellipse
     style="fill:#ffffff;fill-opacity:1;stroke-width:0.694362"
     id="path6"
     cx="22.464405"
     cy="22.523573"
     rx="22.254158"
     ry="22.349888" /><g
     style="opacity:1;fill:none;fill-opacity:1;fill-rule:evenodd;stroke:#000000;stroke-width:1.5;stroke-linecap:round;stroke-linejoin:round;stroke-miterlimit:4;stroke-dasharray:none;stroke-opacity:1"
     transform="matrix(1.0000935,0,0,1.0000935,-1.6613146,-1.7994652)"
     id="g4"><path
       d="m 22,10 c 10.5,1 16.5,8 16,29 H 15 c 0,-9 10,-6.5 8,-21"
       style="fill:#ffffff;stroke:#000000"
       id="path1" /><path
       d="m 24,18 c 0.38,2.91 -5.55,7.37 -8,9 -3,2 -2.82,4.34 -5,4 -1.042,-0.94 1.41,-3.04 0,-3 -1,0 0.19,1.23 -1,2 -1,0 -4.003,1 -4,-4 0,-2 6,-12 6,-12 0,0 1.89,-1.9 2,-3.5 -0.73,-0.994 -0.5,-2 -0.5,-3 1,-1 3,2.5 3,2.5 h 2 c 0,0 0.78,-1.992 2.5,-3 1,0 1,3 1,3"
       style="fill:#ffffff;stroke:#000000"
       id="path2" /><path
       d="m 9.5,25.5 a 0.5,0.5 0 1 1 -1,0 0.5,0.5 0 1 1 1,0 z"
       style="fill:#000000;stroke:#000000"
       id="path3" /><path
       d="m 15,15.5 a 0.5,1.5 0 1 1 -1,0 0.5,1.5 0 1 1 1,0 z"
       transform="matrix(0.866,0.5,-0.5,0.866,9.693,-5.173)"
       style="fill:#000000;stroke:#000000"
       id="path4" /></g><ellipse
     style="fill:#ffffff;stroke:none;stroke-width:0.616085;stroke-opacity:1"
     id="path5"
     cx="31.493559"
     cy="31.435448"
     rx="9.6614475"
     ry="9.5612478" /><path
     d="m 25.380159,32.912711 q -0.833411,0 -1.416799,-0.583388 -0.583388,-0.583389 -0.583388,-1.4168 0,-0.833411 0.583388,-1.416799 0.583388,-0.583388 1.416799,-0.583388 v -1.50014 q 0,-0.618808 0.440666,-1.059474 0.440666,-0.440666 1.059475,-0.440666 h 2.500233 q 0,-0.833411 0.583387,-1.4168 0.583389,-0.583388 1.4168,-0.583388 0.833411,0 1.416799,0.583388 0.583388,0.583389 0.583388,1.4168 h 2.500234 q 0.618807,0 1.059474,0.440666 0.440666,0.440666 0.440666,1.059474 v 1.50014 q 0.833411,0 1.416799,0.583388 0.583388,0.583388 0.583388,1.416799 0,0.833411 -0.583388,1.4168 -0.583388,0.583388 -1.416799,0.583388 v 3.500327 q 0,0.618807 -0.440916,1.059473 -0.440916,0.440666 -1.060057,0.440666 h -9.005906 q -0.619161,0 -1.056702,-0.440666 -0.437541,-0.440666 -0.437541,-1.059473 z m 3.500327,-1.500141 q 0.416707,0 0.7084,-0.291694 0.291694,-0.291694 0.291694,-0.708399 0,-0.416707 -0.291694,-0.7084 -0.291693,-0.291694 -0.7084,-0.291694 -0.416705,0 -0.708399,0.291694 -0.291694,0.291693 -0.291694,0.7084 0,0.416705 0.291694,0.708399 0.291694,0.291694 0.708399,0.291694 z m 4.750444,0 q 0.416706,0 0.708399,-0.291694 0.291695,-0.291694 0.291695,-0.708399 0,-0.416707 -0.291695,-0.7084 -0.291693,-0.291694 -0.708399,-0.291694 -0.416706,0 -0.708398,0.291694 -0.291695,0.291693 -0.291695,0.7084 0,0.416705 0.291695,0.708399 0.291692,0.291694 0.708398,0.291694 z m -5.25049,3.00028 H 34.381 v -1.500139 h -6.00056 z m -1.50014,2.000188 h 9.000841 V 27.412196 H 26.8803 Z m 4.50042,-4.500421 z"
     id="path1-7"
     style="stroke-width:0.0208352" /></svg>
