<?xml version="1.0" encoding="UTF-8" standalone="no"?>
<svg
   version="1.1"
   width="45"
   height="45"
   id="svg4"
   sodipodi:docname="robo_chess_logo3.svg"
   xml:space="preserve"
   inkscape:version="1.3 (0e150ed6c4, 2023-07-21)"
   xmlns:inkscape="http://www.inkscape.org/namespaces/inkscape"
   xmlns:sodipodi="http://sodipodi.sourceforge.net/DTD/sodipodi-0.dtd"
   xmlns="http://www.w3.org/2000/svg"
   xmlns:svg="http://www.w3.org/2000/svg"><defs
     id="defs4" /><sodipodi:namedview
     id="namedview4"
     pagecolor="#ffffff"
     bordercolor="#000000"
     borderopacity="0.25"
     inkscape:showpageshadow="2"
     inkscape:pageopacity="0.0"
     inkscape:pagecheckerboard="0"
     inkscape:deskcolor="#d1d1d1"
     inkscape:zoom="11.044444"
     inkscape:cx="22.5"
     inkscape:cy="22.5"
     inkscape:window-width="1904"
     inkscape:window-height="899"
     inkscape:window-x="8"
     inkscape:window-y="64"
     inkscape:window-maximized="0"
     inkscape:current-layer="svg4" /><g
     style="opacity:1; fill:none; fill-opacity:1; fill-rule:evenodd; stroke:#000000; stroke-width:1.5; stroke-linecap:round;stroke-linejoin:round;stroke-miterlimit:4; stroke-dasharray:none; stroke-opacity:1;"
     transform="translate(0,0.3)"
     id="g4"><path
       d="M 22,10 C 32.5,11 38.5,18 38,39 L 15,39 C 15,30 25,32.5 23,18"
       style="fill:#ffffff; stroke:#000000;"
       id="path1" /><path
       d="M 24,18 C 24.38,20.91 18.45,25.37 16,27 C 13,29 13.18,31.34 11,31 C 9.958,30.06 12.41,27.96 11,28 C 10,28 11.19,29.23 10,30 C 9,30 5.997,31 6,26 C 6,24 12,14 12,14 C 12,14 13.89,12.1 14,10.5 C 13.27,9.506 13.5,8.5 13.5,7.5 C 14.5,6.5 16.5,10 16.5,10 L 18.5,10 C 18.5,10 19.28,8.008 21,7 C 22,7 22,10 22,10"
       style="fill:#ffffff; stroke:#000000;"
       id="path2" /><path
       d="M 9.5 25.5 A 0.5 0.5 0 1 1 8.5,25.5 A 0.5 0.5 0 1 1 9.5 25.5 z"
       style="fill:#000000; stroke:#000000;"
       id="path3" /><path
       d="M 15 15.5 A 0.5 1.5 0 1 1  14,15.5 A 0.5 1.5 0 1 1  15 15.5 z"
       transform="matrix(0.866,0.5,-0.5,0.866,9.693,-5.173)"
       style="fill:#000000; stroke:#000000;"
       id="path4" /></g><ellipse
     style="fill:#ffffff;stroke:none;stroke-width:0.616028;stroke-opacity:1"
     id="path5"
     cx="33.151775"
     cy="33.531807"
     rx="9.6605453"
     ry="9.5603542" /><path
     d="m 27.038946,35.008931 q -0.833333,0 -1.416667,-0.583333 -0.583333,-0.583334 -0.583333,-1.416667 0,-0.833333 0.583333,-1.416667 0.583334,-0.583333 1.416667,-0.583333 v -1.5 q 0,-0.61875 0.440625,-1.059375 0.440625,-0.440625 1.059375,-0.440625 h 2.5 q 0,-0.833333 0.583333,-1.416667 0.583334,-0.583333 1.416667,-0.583333 0.833333,0 1.416667,0.583333 0.583333,0.583334 0.583333,1.416667 h 2.5 q 0.61875,0 1.059375,0.440625 0.440625,0.440625 0.440625,1.059375 v 1.5 q 0.833333,0 1.416667,0.583333 0.583333,0.583334 0.583333,1.416667 0,0.833333 -0.583333,1.416667 -0.583334,0.583333 -1.416667,0.583333 v 3.5 q 0,0.61875 -0.440875,1.059375 -0.440875,0.440625 -1.059958,0.440625 H 28.53305 q -0.619104,0 -1.056604,-0.440625 -0.4375,-0.440625 -0.4375,-1.059375 z m 3.5,-1.5 q 0.416667,0 0.708333,-0.291667 0.291667,-0.291666 0.291667,-0.708333 0,-0.416667 -0.291667,-0.708333 -0.291666,-0.291667 -0.708333,-0.291667 -0.416667,0 -0.708333,0.291667 -0.291667,0.291666 -0.291667,0.708333 0,0.416667 0.291667,0.708333 0.291666,0.291667 0.708333,0.291667 z m 4.75,0 q 0.416667,0 0.708333,-0.291667 0.291667,-0.291666 0.291667,-0.708333 0,-0.416667 -0.291667,-0.708333 -0.291666,-0.291667 -0.708333,-0.291667 -0.416667,0 -0.708333,0.291667 -0.291667,0.291666 -0.291667,0.708333 0,0.416667 0.291667,0.708333 0.291666,0.291667 0.708333,0.291667 z m -5.25,3 h 6 v -1.5 h -6 z m -1.5,2 h 9 v -9 h -9 z m 4.5,-4.5 z"
     id="path1-7"
     style="stroke-width:0.0208333" /></svg>
